<?xml version="1.0" encoding="UTF-8"?>
<!DOCTYPE svg PUBLIC "-//W3C//DTD SVG 1.1//EN" "http://www.w3.org/Graphics/SVG/1.1/DTD/svg11.dtd">
<svg xmlns="http://www.w3.org/2000/svg" version="1.1" width="198px" height="167px" style="shape-rendering:geometricPrecision; text-rendering:geometricPrecision; image-rendering:optimizeQuality; fill-rule:evenodd; clip-rule:evenodd" xmlns:xlink="http://www.w3.org/1999/xlink">
<g><path style="opacity:0.93" fill="#000000" d="M 11.5,12.5 C 12.8734,12.3433 14.2068,12.51 15.5,13C 25.284,24.4047 31.4507,37.5714 34,52.5C 47.9305,33.9405 66.4305,22.6072 89.5,18.5C 92.9632,19.1536 96.1299,20.487 99,22.5C 101.87,20.487 105.037,19.1536 108.5,18.5C 131.905,22.1061 150.405,33.4394 164,52.5C 166.525,37.6176 172.691,24.451 182.5,13C 183.793,12.51 185.127,12.3433 186.5,12.5C 189.798,40.4538 186.131,67.4538 175.5,93.5C 179.581,95.9839 181.915,99.6506 182.5,104.5C 192.676,109.381 194.01,116.048 186.5,124.5C 192.17,131.177 193.004,138.51 189,146.5C 181.903,153.36 175.569,152.694 170,144.5C 166.744,156.207 159.578,160.04 148.5,156C 145.457,153.407 143.29,150.24 142,146.5C 122.191,159.704 100.691,163.204 77.5,157C 69.581,154.957 62.4143,151.457 56,146.5C 52.3535,156.91 45.5202,160.077 35.5,156C 31.8957,153.292 29.3957,149.792 28,145.5C 20.9332,153.302 14.2666,152.968 8,144.5C 5.2011,137.059 6.36776,130.392 11.5,124.5C 4.29329,116.121 5.62662,109.454 15.5,104.5C 15.8853,99.2173 18.5519,95.7173 23.5,94C 12.1031,68.0051 8.10306,40.8385 11.5,12.5 Z M 142.5,39.5 C 141.019,40.4212 139.686,41.5879 138.5,43C 139.761,44.9618 141.428,46.4618 143.5,47.5C 141.194,47.0074 138.861,46.6741 136.5,46.5C 136.674,48.861 137.007,51.1944 137.5,53.5C 136.221,51.8767 134.887,50.21 133.5,48.5C 131.784,49.5487 130.451,50.882 129.5,52.5C 129.357,50.7376 129.691,49.0709 130.5,47.5C 127.901,46.969 125.235,46.8023 122.5,47C 124.664,46.0857 126.664,44.919 128.5,43.5C 126.717,41.7684 124.717,40.2684 122.5,39C 124.833,39.3333 127.167,39.6667 129.5,40C 129.957,39.586 130.291,39.086 130.5,38.5C 129.452,36.5441 128.952,34.5441 129,32.5C 130.268,34.7173 131.768,36.7173 133.5,38.5C 134.833,36.5 136.167,34.5 137.5,32.5C 136.978,34.9464 136.978,37.6131 137.5,40.5C 139.071,39.6906 140.738,39.3573 142.5,39.5 Z M 21.5,40.5 C 23.9032,40.393 25.7365,41.393 27,43.5C 28.8751,48.1669 30.0418,53.0002 30.5,58C 28.5166,65.7494 26.8499,73.5827 25.5,81.5C 23.8762,81.6399 22.7096,80.9733 22,79.5C 17.6098,66.5092 17.4431,53.5092 21.5,40.5 Z M 173.5,40.5 C 174.822,40.33 175.989,40.6634 177,41.5C 180.596,54.8383 180.096,68.005 175.5,81C 174.552,81.4828 173.552,81.6495 172.5,81.5C 171.151,73.4365 169.484,65.4365 167.5,57.5C 167.926,51.2201 169.926,45.5535 173.5,40.5 Z M 126.5,62.5 C 128.472,65.0836 129.472,68.0836 129.5,71.5C 135.205,71.1934 140.871,70.5267 146.5,69.5C 145.487,66.8122 144.487,64.1456 143.5,61.5C 146.924,63.4183 149.924,65.9183 152.5,69C 153.938,69.2189 155.271,69.7189 156.5,70.5C 167.445,102.164 159.112,127.331 131.5,146C 101.75,159.93 74.9167,155.763 51,133.5C 35.7446,114.378 32.5779,93.3781 41.5,70.5C 42.7287,69.7189 44.062,69.2189 45.5,69C 48.1009,65.8883 51.1009,63.3883 54.5,61.5C 53.0712,64.3084 52.4045,67.3084 52.5,70.5C 57.8617,70.4724 63.1951,70.8058 68.5,71.5C 68.9281,68.2154 69.9281,65.2154 71.5,62.5C 71.0371,65.4824 70.7038,68.4824 70.5,71.5C 83.3067,71.5313 90.8067,65.1979 93,52.5C 94.2559,48.9837 96.2559,45.9837 99,43.5C 103.357,47.5465 106.023,52.5465 107,58.5C 110.836,67.4938 117.669,71.8271 127.5,71.5C 127.296,68.4824 126.963,65.4824 126.5,62.5 Z M 59.5,95.5 C 62.9571,95.6672 63.2904,96.6672 60.5,98.5C 59.6143,97.675 59.281,96.675 59.5,95.5 Z M 137.5,95.5 C 139.465,95.9483 139.798,96.9483 138.5,98.5C 136.481,97.8671 136.147,96.8671 137.5,95.5 Z"/></g>
<g><path style="opacity:0.751" fill="#000000" d="M 97.5,47.5 C 98.9311,47.8807 99.7645,48.8807 100,50.5C 100.979,59.1414 101.646,67.8081 102,76.5C 106.081,75.0285 110.081,73.3618 114,71.5C 114.667,72.5 114.667,73.5 114,74.5C 111.261,77.1176 108.427,79.6176 105.5,82C 118.025,91.5443 117.025,93.3776 102.5,87.5C 101.621,91.1541 100.787,94.8208 100,98.5C 99,99.8333 98,99.8333 97,98.5C 96.6667,95.5 96.3333,92.5 96,89.5C 95.6924,88.6919 95.1924,88.0253 94.5,87.5C 90.5388,89.0426 86.5388,90.376 82.5,91.5C 84.6096,87.2276 87.9429,84.0609 92.5,82C 78.4969,71.3173 79.3303,69.4839 95,76.5C 96.039,66.8289 96.8724,57.1622 97.5,47.5 Z"/></g>
<g><path style="opacity:0.866" fill="#000000" d="M 44.5,70.5 C 47.4747,70.3069 49.9747,71.3069 52,73.5C 59.4174,70.6384 65.4174,72.6384 70,79.5C 76.493,91.8023 79.6596,104.802 79.5,118.5C 82.8468,123.121 82.8468,127.955 79.5,133C 77.892,133.658 76.7253,133.158 76,131.5C 74.4915,127.654 74.3249,123.821 75.5,120C 72.6324,118.065 71.7991,115.565 73,112.5C 61.4104,111.376 55.9104,104.71 56.5,92.5C 58.1992,92.6602 59.8659,92.4935 61.5,92C 60.1322,90.6598 58.7989,89.3264 57.5,88C 59.1541,85.0125 61.4875,82.6792 64.5,81C 60.4403,75.7831 55.9403,75.2831 51,79.5C 50.3369,84.5374 50.5036,89.5374 51.5,94.5C 50.448,94.6495 49.448,94.4828 48.5,94C 47.5984,91.7984 46.5984,89.6317 45.5,87.5C 41.1849,86.3953 39.8515,83.8953 41.5,80C 47.8601,80.4235 48.6934,78.9235 44,75.5C 43.3603,73.735 43.5269,72.0683 44.5,70.5 Z M 59.5,95.5 C 59.281,96.675 59.6143,97.675 60.5,98.5C 63.2904,96.6672 62.9571,95.6672 59.5,95.5 Z"/></g>
<g><path style="opacity:0.863" fill="#000000" d="M 150.5,70.5 C 153.261,69.9147 154.927,70.9147 155.5,73.5C 154.781,75.7277 153.448,77.561 151.5,79C 153.5,79.3333 155.5,79.6667 157.5,80C 159.169,83.9765 157.836,86.4765 153.5,87.5C 152.376,89.3686 151.543,91.3686 151,93.5C 149.989,94.3366 148.822,94.67 147.5,94.5C 148.496,89.5374 148.663,84.5374 148,79.5C 143.06,75.2831 138.56,75.7831 134.5,81C 137.513,82.6792 139.846,85.0125 141.5,88C 140.491,89.1681 139.491,90.3348 138.5,91.5C 139.689,92.4287 141.022,92.762 142.5,92.5C 142.95,104.854 137.284,111.687 125.5,113C 127.223,116.408 126.223,118.741 122.5,120C 123.602,122.401 123.769,124.901 123,127.5C 122.885,130.008 121.885,132.008 120,133.5C 119.228,133.355 118.561,133.022 118,132.5C 117.268,129.471 116.435,126.471 115.5,123.5C 116.071,121.259 117.404,119.592 119.5,118.5C 119.341,104.8 122.508,91.7999 129,79.5C 133.583,72.6384 139.583,70.6384 147,73.5C 148.518,72.8366 149.685,71.8366 150.5,70.5 Z M 137.5,95.5 C 136.147,96.8671 136.481,97.8671 138.5,98.5C 139.798,96.9483 139.465,95.9483 137.5,95.5 Z"/></g>
<g><path style="opacity:0.668" fill="#000000" d="M 50.5,97.5 C 54.4283,98.6795 56.4283,101.346 56.5,105.5C 51.0713,105.289 49.0713,102.623 50.5,97.5 Z"/></g>
<g><path style="opacity:0.669" fill="#000000" d="M 146.5,97.5 C 149.076,97.7218 149.91,99.0551 149,101.5C 147.974,104.693 145.808,106.026 142.5,105.5C 142.53,102.148 143.863,99.4818 146.5,97.5 Z"/></g>
<g><path style="opacity:0.477" fill="#000000" d="M 57.5,107.5 C 60.8606,108.203 61.1939,109.537 58.5,111.5C 56.3576,110.563 56.0243,109.23 57.5,107.5 Z"/></g>
<g><path style="opacity:0.479" fill="#000000" d="M 139.5,107.5 C 142.861,108.203 143.194,109.537 140.5,111.5C 138.358,110.563 138.024,109.23 139.5,107.5 Z"/></g>
<g><path style="opacity:0.841" fill="#000000" d="M 86.5,126.5 C 90.7902,127.382 94.9568,128.715 99,130.5C 103.043,128.715 107.21,127.382 111.5,126.5C 112.571,131.598 110.571,134.764 105.5,136C 99.5743,137.11 93.9077,136.444 88.5,134C 86.7215,131.865 86.0548,129.365 86.5,126.5 Z"/></g>
</svg>
