<?xml version="1.0" encoding="UTF-8"?>
<svg xmlns="http://www.w3.org/2000/svg" xmlns:xlink="http://www.w3.org/1999/xlink" width="50px" height="50px" viewBox="0 0 50 50" version="1.1">
<defs>
<filter id="alpha" filterUnits="objectBoundingBox" x="0%" y="0%" width="100%" height="100%">
  <feColorMatrix type="matrix" in="SourceGraphic" values="0 0 0 0 1 0 0 0 0 1 0 0 0 0 1 0 0 0 1 0"/>
</filter>
<mask id="mask0">
  <g filter="url(#alpha)">
<rect x="0" y="0" width="50" height="50" style="fill:rgb(0%,0%,0%);fill-opacity:1;stroke:none;"/>
  </g>
</mask>
<clipPath id="clip1">
  <rect x="0" y="0" width="50" height="50"/>
</clipPath>
<g id="surface5" clip-path="url(#clip1)">
<path style=" stroke:none;fill-rule:evenodd;fill:rgb(0%,0%,0%);fill-opacity:1;" d="M 24.941406 -0.0195312 C 24.953125 -0.0195312 24.96875 -0.0195312 24.980469 -0.0195312 C 25.898438 6.742188 26.808594 13.503906 27.707031 20.269531 C 30.496094 18.132812 33.289062 16 36.085938 13.875 C 33.996094 16.667969 31.878906 19.460938 29.730469 22.253906 C 36.480469 23.167969 43.230469 24.078125 49.980469 24.980469 C 49.980469 24.992188 49.980469 25.007812 49.980469 25.019531 C 43.226562 25.902344 36.476562 26.8125 29.730469 27.746094 C 31.863281 30.535156 33.992188 33.320312 36.125 36.105469 C 36.113281 36.113281 36.101562 36.121094 36.085938 36.125 C 33.289062 34 30.496094 31.867188 27.707031 29.730469 C 26.800781 36.476562 25.902344 43.230469 25.019531 49.980469 C 24.992188 49.980469 24.96875 49.980469 24.941406 49.980469 C 24.054688 43.230469 23.15625 36.480469 22.253906 29.730469 C 19.464844 31.867188 16.671875 34 13.875 36.125 C 13.859375 36.121094 13.847656 36.113281 13.835938 36.105469 C 15.964844 33.320312 18.097656 30.535156 20.230469 27.746094 C 13.484375 26.8125 6.734375 25.902344 -0.0195312 25.019531 C -0.0195312 25.007812 -0.0195312 24.992188 -0.0195312 24.980469 C 6.730469 24.078125 13.480469 23.167969 20.230469 22.253906 C 18.097656 19.464844 15.964844 16.679688 13.835938 13.894531 C 13.890625 13.882812 13.941406 13.894531 13.992188 13.933594 C 16.730469 16.042969 19.480469 18.140625 22.234375 20.230469 C 23.160156 13.484375 24.0625 6.734375 24.941406 -0.0195312 Z M 24.941406 -0.0195312 "/>
</g>
</defs>
<g id="surface1">
<use xlink:href="#surface5" mask="url(#mask0)"/>
</g>
</svg>
